<svg width="769" height="353" viewBox="0 0 769 353" fill="none" xmlns="http://www.w3.org/2000/svg">
<path d="M3 171.822V0.0400391H209.138V171.822H174.782V34.3965H140.426V171.822H106.069V34.3965H71.7128V171.822H3Z" fill="white"/>
<path d="M215.659 171.822V137.466H353.084V103.109H215.659V0.0400391H284.372V68.7529H353.084V0.0400391H387.441V171.822H215.659Z" fill="#FEC700"/>
<path d="M396.218 171.822V137.466H533.644V103.109H396.218V0.0400391H568V34.3965H464.931V68.7529H568V171.822H396.218Z" fill="#02462E"/>
<path d="M738.888 294.523V204.188H678.665V294.523H738.888ZM618.442 324.634V174.076H769V324.634H618.442Z" fill="#02462E"/>
<path d="M578 181.329V151.218H608.112V181.329H578Z" fill="white"/>
<path d="M618.442 150.558V90.3349H678.665V120.446H738.888V90.3349H708.777V60.2232H738.888V30.1116H678.665V60.2232H618.442V0H769V150.558H618.442Z" fill="#FEC700"/>
<path d="M564.801 194.26V249.04H555.837V194.26H564.801ZM528.779 194.26V249.04H519.898V194.26H528.779ZM560.319 217.5V225.136H524.38V217.5H560.319Z" fill="white"/>
<path d="M514.242 194.26V201.896H495.484V249.04H486.603V201.896H467.845V194.26H514.242Z" fill="white"/>
<path d="M463.281 194.26V228.041C463.281 235.29 461.372 240.74 457.554 244.392C453.736 248.044 448.175 249.87 440.871 249.87C433.678 249.87 428.145 248.044 424.271 244.392C420.453 240.74 418.544 235.29 418.544 228.041V194.26H427.425V226.962C427.425 232.108 428.532 235.926 430.745 238.416C432.959 240.906 436.334 242.151 440.871 242.151C445.464 242.151 448.867 240.906 451.08 238.416C453.294 235.926 454.4 232.108 454.4 226.962V194.26H463.281Z" fill="white"/>
<path d="M385.501 193.43C390.813 193.43 395.405 194.565 399.279 196.833C403.152 199.102 406.14 202.339 408.243 206.544C410.345 210.75 411.397 215.785 411.397 221.65C411.397 227.516 410.345 232.551 408.243 236.756C406.14 240.962 403.152 244.199 399.279 246.467C395.405 248.736 390.813 249.87 385.501 249.87C380.244 249.87 375.679 248.736 371.806 246.467C367.932 244.199 364.944 240.962 362.842 236.756C360.739 232.551 359.688 227.516 359.688 221.65C359.688 215.785 360.739 210.75 362.842 206.544C364.944 202.339 367.932 199.102 371.806 196.833C375.679 194.565 380.244 193.43 385.501 193.43ZM385.501 201.149C382.07 201.149 379.11 201.952 376.62 203.556C374.185 205.161 372.304 207.485 370.976 210.528C369.648 213.572 368.984 217.279 368.984 221.65C368.984 225.966 369.648 229.674 370.976 232.772C372.304 235.816 374.185 238.14 376.62 239.744C379.11 241.349 382.07 242.151 385.501 242.151C388.987 242.151 391.947 241.349 394.382 239.744C396.872 238.14 398.781 235.816 400.109 232.772C401.437 229.674 402.101 225.966 402.101 221.65C402.101 217.279 401.437 213.572 400.109 210.528C398.781 207.485 396.872 205.161 394.382 203.556C391.947 201.952 388.987 201.149 385.501 201.149Z" fill="white"/>
<path d="M361.154 194.26L341.566 228.041V249.04H332.685V228.041L313.18 194.26H323.057L332.851 211.939L337.167 220.073L341.483 211.939L351.194 194.26H361.154Z" fill="white"/>
<path d="M290.338 194.26V249.04H282.121V217.334L282.785 202.228H282.702L266.019 249.04H258.632L241.949 202.228H241.866L242.53 217.334V249.04H234.313V194.26H247.51L258.549 225.966L262.367 238.997H262.533L266.434 225.966L277.39 194.26H290.338Z" fill="white"/>
<path d="M223.047 194.26V249.04H214.166V194.26H223.047Z" fill="white"/>
<path d="M178.34 241.404H208.552V249.04H169.459V194.26H178.34V241.404Z" fill="white"/>
<path d="M139.862 193.43C144.786 193.43 149.047 194.371 152.644 196.252C156.24 198.078 159.284 200.79 161.774 204.386L155.798 210.113C153.695 206.904 151.316 204.608 148.66 203.224C146.059 201.786 142.96 201.066 139.364 201.066C136.708 201.066 134.522 201.426 132.807 202.145C131.091 202.865 129.819 203.833 128.989 205.05C128.214 206.212 127.827 207.54 127.827 209.034C127.827 210.75 128.408 212.244 129.57 213.516C130.787 214.789 133.028 215.785 136.293 216.504L147.415 218.994C152.727 220.156 156.489 221.927 158.703 224.306C160.916 226.686 162.023 229.701 162.023 233.353C162.023 236.729 161.11 239.661 159.284 242.151C157.458 244.641 154.912 246.55 151.648 247.878C148.438 249.206 144.648 249.87 140.277 249.87C136.403 249.87 132.917 249.372 129.819 248.376C126.72 247.38 124.009 246.025 121.685 244.309C119.361 242.594 117.452 240.63 115.958 238.416L122.1 232.274C123.262 234.211 124.728 235.954 126.499 237.503C128.269 238.997 130.317 240.159 132.641 240.989C135.02 241.819 137.648 242.234 140.526 242.234C143.071 242.234 145.257 241.93 147.083 241.321C148.964 240.713 150.375 239.827 151.316 238.665C152.312 237.448 152.81 236.009 152.81 234.349C152.81 232.745 152.256 231.334 151.15 230.116C150.098 228.899 148.106 227.958 145.174 227.294L133.139 224.555C129.819 223.836 127.08 222.812 124.922 221.484C122.764 220.156 121.159 218.552 120.108 216.67C119.056 214.734 118.531 212.576 118.531 210.196C118.531 207.098 119.361 204.303 121.021 201.813C122.736 199.268 125.198 197.248 128.408 195.754C131.617 194.205 135.435 193.43 139.862 193.43Z" fill="white"/>
<path d="M110.979 194.26V228.041C110.979 235.29 109.07 240.74 105.252 244.392C101.434 248.044 95.8727 249.87 88.5687 249.87C81.3754 249.87 75.842 248.044 71.9687 244.392C68.1507 240.74 66.2417 235.29 66.2417 228.041V194.26H75.1227V226.962C75.1227 232.108 76.2294 235.926 78.4427 238.416C80.656 240.906 84.0314 242.151 88.5687 242.151C93.1614 242.151 96.5644 240.906 98.7777 238.416C100.991 235.926 102.098 232.108 102.098 226.962V194.26H110.979Z" fill="white"/>
<path d="M56.025 194.26V249.04H47.808V217.334L48.472 202.228H48.389L31.706 249.04H24.319L7.636 202.228H7.553L8.217 217.334V249.04H0V194.26H13.197L24.236 225.966L28.054 238.997H28.22L32.121 225.966L43.077 194.26H56.025Z" fill="white"/>
<path d="M29.128 272.08C34.5253 272.08 39.2773 272.931 43.384 274.632C47.5493 276.275 51.1573 278.709 54.208 281.936L46.904 291.704C44.3813 289.064 41.6533 287.099 38.72 285.808C35.8453 284.459 32.56 283.784 28.864 283.784C26.6933 283.784 24.9333 284.019 23.584 284.488C22.2347 284.957 21.2667 285.603 20.68 286.424C20.0933 287.245 19.8 288.184 19.8 289.24C19.8 290.472 20.3573 291.528 21.472 292.408C22.6453 293.229 24.5227 293.933 27.104 294.52L36.872 296.72C42.68 298.069 46.9333 300.035 49.632 302.616C52.3307 305.197 53.68 308.629 53.68 312.912C53.68 317.019 52.624 320.509 50.512 323.384C48.4 326.2 45.496 328.341 41.8 329.808C38.104 331.216 33.88 331.92 29.128 331.92C25.256 331.92 21.56 331.509 18.04 330.688C14.52 329.808 11.352 328.576 8.536 326.992C5.72 325.408 3.344 323.589 1.408 321.536L8.712 311.416C10.1787 313.117 11.968 314.643 14.08 315.992C16.2507 317.283 18.5973 318.309 21.12 319.072C23.7013 319.835 26.312 320.216 28.952 320.216C31.0053 320.216 32.7067 320.011 34.056 319.6C35.464 319.189 36.4907 318.573 37.136 317.752C37.7813 316.931 38.104 315.963 38.104 314.848C38.104 313.616 37.664 312.589 36.784 311.768C35.904 310.888 34.232 310.155 31.768 309.568L21.032 307.192C17.7467 306.429 14.8133 305.432 12.232 304.2C9.70933 302.909 7.71467 301.208 6.248 299.096C4.78133 296.925 4.048 294.227 4.048 291C4.048 287.363 5.04533 284.136 7.04 281.32C9.03467 278.445 11.9093 276.187 15.664 274.544C19.4187 272.901 23.9067 272.08 29.128 272.08ZM154.399 272.96V307.368C154.399 315.581 152.199 321.741 147.799 325.848C143.457 329.896 137.004 331.92 128.439 331.92C119.932 331.92 113.479 329.896 109.079 325.848C104.679 321.741 102.479 315.581 102.479 307.368V272.96H117.703V307.632C117.703 311.797 118.583 314.907 120.343 316.96C122.161 319.013 124.86 320.04 128.439 320.04C132.076 320.04 134.775 319.013 136.535 316.96C138.353 314.907 139.263 311.797 139.263 307.632V272.96H154.399ZM273.811 272.96V331.04H260.435V304.376L260.875 286.512H260.699L246.355 331.04H234.123L219.779 286.512H219.603L220.043 304.376V331.04H206.579V272.96H228.139L237.291 302.528L240.547 314.848H240.723L244.067 302.616L253.131 272.96H273.811ZM394.385 272.96V331.04H381.009V304.376L381.449 286.512H381.273L366.929 331.04H354.697L340.353 286.512H340.177L340.617 304.376V331.04H327.153V272.96H348.713L357.865 302.528L361.121 314.848H361.297L364.641 302.616L373.705 272.96H394.385ZM462.863 272.96V331.04H447.727V272.96H462.863ZM565.062 272.96V284.664H546.142V331.04H531.006V284.664H511.998V272.96H565.062Z" fill="white"/>
</svg>
